<svg width="40" height="38" viewBox="0 0 40 38" fill="none" xmlns="http://www.w3.org/2000/svg">
<path d="M12.5371 17.6744C12.176 17.6744 11.8297 17.8141 11.5743 18.0627C11.319 18.3113 11.1755 18.6484 11.1755 19C11.1755 19.3516 11.319 19.6887 11.5743 19.9373C11.8297 20.1859 12.176 20.3256 12.5371 20.3256V17.6744ZM27.0608 20.3256C27.422 20.3256 27.7683 20.1859 28.0236 19.9373C28.279 19.6887 28.4224 19.3516 28.4224 19C28.4224 18.6484 28.279 18.3113 28.0236 18.0627C27.7683 17.8141 27.422 17.6744 27.0608 17.6744V20.3256ZM21.1606 11.9302C21.1606 11.5787 21.0171 11.2415 20.7618 10.9929C20.5064 10.7443 20.1601 10.6047 19.799 10.6047C19.4379 10.6047 19.0915 10.7443 18.8362 10.9929C18.5808 11.2415 18.4374 11.5787 18.4374 11.9302H21.1606ZM18.4374 26.0698C18.4374 26.4213 18.5808 26.7585 18.8362 27.0071C19.0915 27.2557 19.4379 27.3953 19.799 27.3953C20.1601 27.3953 20.5064 27.2557 20.7618 27.0071C21.0171 26.7585 21.1606 26.4213 21.1606 26.0698H18.4374ZM36.592 19C36.592 23.336 34.8228 27.4944 31.6735 30.5604C28.5242 33.6264 24.2528 35.3488 19.799 35.3488V38C24.975 38 29.9391 35.9982 33.5991 32.435C37.2591 28.8718 39.3152 24.0391 39.3152 19H36.592ZM19.799 35.3488C15.3452 35.3488 11.0738 33.6264 7.92449 30.5604C4.77518 27.4944 3.00591 23.336 3.00591 19H0.282715C0.282715 24.0391 2.33889 28.8718 5.9989 32.435C9.65891 35.9982 14.6229 38 19.799 38V35.3488ZM3.00591 19C3.00591 14.664 4.77518 10.5056 7.92449 7.43963C11.0738 4.37362 15.3452 2.65116 19.799 2.65116V0C14.6229 0 9.65891 2.00178 5.9989 5.56497C2.33889 9.12816 0.282715 13.9609 0.282715 19H3.00591ZM19.799 2.65116C24.2528 2.65116 28.5242 4.37362 31.6735 7.43963C34.8228 10.5056 36.592 14.664 36.592 19H39.3152C39.3152 13.9609 37.2591 9.12816 33.5991 5.56497C29.9391 2.00178 24.975 0 19.799 0V2.65116ZM12.5371 20.3256H27.0608V17.6744H12.5371V20.3256ZM18.4374 11.9302V26.0698H21.1606V11.9302H18.4374Z" fill="white"/>
</svg>
