<svg width="22" height="26" viewBox="0 0 22 26" fill="none" xmlns="http://www.w3.org/2000/svg">
<g filter="url(#filter0_d_774_299)">
<path fill-rule="evenodd" clip-rule="evenodd" d="M11 8C11.7911 8 12.5645 7.76541 13.2223 7.32588C13.8801 6.88635 14.3928 6.26164 14.6955 5.53074C14.9983 4.79983 15.0775 3.99556 14.9231 3.21964C14.7688 2.44372 14.3878 1.73098 13.8284 1.17157C13.269 0.612165 12.5563 0.231202 11.7804 0.0768607C11.0044 -0.0774802 10.2002 0.00173312 9.46927 0.304484C8.73836 0.607234 8.11365 1.11992 7.67412 1.77772C7.2346 2.43552 7 3.20888 7 4C7 5.06087 7.42143 6.07828 8.17157 6.82843C8.92172 7.57857 9.93913 8 11 8ZM11 18C14.866 18 18 16.209 18 14C18 11.791 14.866 10 11 10C7.134 10 4 11.791 4 14C4 16.209 7.134 18 11 18Z" fill="#28303F"/>
</g>
<defs>
<filter id="filter0_d_774_299" x="0" y="0" width="22" height="26" filterUnits="userSpaceOnUse" color-interpolation-filters="sRGB">
<feFlood flood-opacity="0" result="BackgroundImageFix"/>
<feColorMatrix in="SourceAlpha" type="matrix" values="0 0 0 0 0 0 0 0 0 0 0 0 0 0 0 0 0 0 127 0" result="hardAlpha"/>
<feOffset dy="4"/>
<feGaussianBlur stdDeviation="2"/>
<feComposite in2="hardAlpha" operator="out"/>
<feColorMatrix type="matrix" values="0 0 0 0 0 0 0 0 0 0 0 0 0 0 0 0 0 0 0.25 0"/>
<feBlend mode="normal" in2="BackgroundImageFix" result="effect1_dropShadow_774_299"/>
<feBlend mode="normal" in="SourceGraphic" in2="effect1_dropShadow_774_299" result="shape"/>
</filter>
</defs>
</svg>
