<svg width="15" height="16" viewBox="0 0 15 16" fill="none" xmlns="http://www.w3.org/2000/svg">
<path d="M4.97636 4.50379L5.38927 4.69839L4.97636 4.50379C4.97294 4.51104 4.96911 4.51476 4.96705 4.51633C4.96638 4.51684 4.9659 4.51712 4.96562 4.51727L1.36555 5.06508C0.510035 5.19526 0.230385 6.24758 0.79866 6.82765L3.40419 9.48727C3.4073 9.49044 3.41124 9.49607 3.41392 9.50471C3.4166 9.51337 3.41742 9.52321 3.4158 9.53312L2.80072 13.2886C2.67007 14.0863 3.49174 14.8096 4.28128 14.375L7.5 12.6029L10.7187 14.375C11.5083 14.8096 12.3299 14.0862 12.1993 13.2886L11.5842 9.53312C11.5826 9.52321 11.5834 9.51336 11.5861 9.50471C11.5888 9.49607 11.5927 9.49044 11.5958 9.48727L14.2013 6.82765C14.7696 6.24757 14.49 5.19526 13.6344 5.06508L10.0344 4.51727C10.0341 4.51712 10.0336 4.51684 10.033 4.51633C10.0309 4.51476 10.0271 4.51104 10.0236 4.50379L8.41334 1.08697C8.04449 0.304341 6.9555 0.304347 6.58666 1.08697L4.97636 4.50379ZM4.96631 4.51717L4.96626 4.51718C4.96628 4.51717 4.96629 4.51717 4.96631 4.51717L5.04153 5.01148L4.96631 4.51717Z" stroke="white"/>
</svg>
