<svg width="6" height="12" viewBox="0 0 6 12" fill="none" xmlns="http://www.w3.org/2000/svg">
<path d="M5.21733 0.163685C5.29442 0.225157 5.35863 0.301228 5.40629 0.387544C5.45396 0.47386 5.48413 0.568726 5.49509 0.666716C5.50605 0.764706 5.49758 0.863895 5.47017 0.958608C5.44275 1.05332 5.39693 1.1417 5.33533 1.21868L1.70933 5.74968L5.33533 10.2817C5.39905 10.3583 5.44685 10.4469 5.47595 10.5422C5.50504 10.6376 5.51484 10.7378 5.50477 10.8369C5.4947 10.9361 5.46497 11.0322 5.41731 11.1198C5.36965 11.2073 5.30501 11.2845 5.22719 11.3468C5.14936 11.409 5.0599 11.4552 4.96404 11.4825C4.86818 11.5098 4.76784 11.5177 4.66888 11.5058C4.56992 11.4938 4.47433 11.4623 4.3877 11.413C4.30107 11.3637 4.22513 11.2977 4.16433 11.2187L0.164326 6.21868C0.0579486 6.0857 -5.72205e-06 5.92048 -5.72205e-06 5.75019C-5.72205e-06 5.57989 0.0579486 5.41467 0.164326 5.28168L4.16433 0.281685C4.28843 0.126573 4.46901 0.0270344 4.66642 0.00491194C4.86384 -0.0172105 5.06196 0.0398907 5.21733 0.163685Z" fill="white"/>
</svg>
